<?xml version="1.0" encoding="UTF-8"?>
<svg id="Capa_1" xmlns="http://www.w3.org/2000/svg" version="1.1" viewBox="0 0 622 291">
  <!-- Generator: Adobe Illustrator 30.0.0, SVG Export Plug-In . SVG Version: 2.1.1 Build 123)  -->
  <g>
    <path d="M213.03,103.29L120.91,6.37c-1.66-1.7-3.91-2.64-6.12-2.69-2.21.05-4.47.98-6.12,2.69L16.54,103.29c-8.79,9.46-9.24,26.79-9.24,44.66s.6,36.83,11.6,48.38l90.01,85.62c1.66,1.54,3.77,2.35,5.88,2.38,2.11-.02,4.23-.84,5.88-2.38l90.01-85.62c11.02-11.55,11.62-30.23,11.62-48.38s-.48-35.2-9.27-44.66ZM180.24,179.71l-61.44,58.44c-1.13,1.06-2.57,1.61-4.01,1.63-1.44-.02-2.88-.58-4.01-1.63l-61.44-58.44c-7.51-7.87-10.92-20.62-10.92-33.01s3.31-24.03,9.32-30.49l62.88-66.14c1.13-1.18,2.66-1.8,4.18-1.85,1.51.05,3.05.67,4.18,1.85l62.88,66.14c6,6.46,9.32,18.29,9.32,30.49s-3.41,25.14-10.92,33.01Z"/>
    <g>
      <path d="M94.77,166.62s-6.81,2.95-10.46,6.6c-3.65,3.65-5.5,9.36-5.5,9.36,0,0-1.85-5.71-5.5-9.36-3.65-3.65-10.46-6.6-10.46-6.6,0,0,6.38-1.76,10.09-5.46,3.71-3.71,5.87-10.5,5.87-10.5,0,0,2.16,6.79,5.87,10.5,3.71,3.71,10.09,5.46,10.09,5.46Z"/>
      <path d="M166.76,166.62s-6.81,2.95-10.46,6.6c-3.65,3.65-5.5,9.36-5.5,9.36,0,0-1.85-5.71-5.5-9.36-3.65-3.65-10.46-6.6-10.46-6.6,0,0,6.38-1.76,10.09-5.46,3.71-3.71,5.87-10.5,5.87-10.5,0,0,2.16,6.79,5.87,10.5,3.71,3.71,10.09,5.46,10.09,5.46Z"/>
    </g>
    <path d="M137.42,110.89s-9.66,4.18-14.82,9.35c-5.17,5.17-7.79,13.26-7.79,13.26,0,0-2.63-8.1-7.79-13.26-5.17-5.17-14.82-9.35-14.82-9.35,0,0,9.04-2.49,14.3-7.74,5.25-5.25,8.32-14.88,8.32-14.88,0,0,3.06,9.62,8.32,14.88,5.26,5.25,14.3,7.74,14.3,7.74Z"/>
  </g>
  <g>
    <path d="M303.6,165.21v-92.28h-35.42v-17.18h89.17v17.18h-35.42v92.28h-18.32Z"/>
    <path d="M431.84,129.25c.71-9.83-.38-18.37-3.27-25.61-2.89-7.25-7.31-12.86-13.26-16.84-5.96-3.98-13.19-5.96-21.71-5.96-8.06,0-15.15,1.82-21.28,5.47-6.13,3.65-10.92,8.78-14.37,15.39-3.44,6.61-5.17,14.4-5.17,23.37,0,8.31,1.76,15.66,5.29,22.04,3.51,6.39,8.42,11.39,14.7,14.99,6.28,3.59,13.58,5.39,21.89,5.39s15.15-2.04,21.71-6.16c6.56-4.1,11.41-9.86,14.56-17.25l-18.1-5.47c-1.78,3.81-4.3,6.71-7.57,8.71-3.27,2.01-7.15,3-11.67,3-6.99,0-12.32-2.28-15.97-6.84-2.86-3.58-4.6-8.31-5.22-14.21h59.42ZM372.87,115.42c.83-4.75,2.42-8.61,4.76-11.58,3.65-4.64,9.23-6.95,16.72-6.95,6.65,0,11.51,2.04,14.59,6.15,2.2,2.93,3.62,7.05,4.29,12.39h-40.37Z"/>
    <path d="M484.52,167.5c-8.46,0-15.69-1.89-21.66-5.66-5.98-3.77-10.55-8.93-13.72-15.47-3.17-6.54-4.78-13.94-4.83-22.2.05-8.41,1.71-15.87,4.98-22.39,3.27-6.51,7.92-11.63,13.95-15.36,6.03-3.73,13.2-5.59,21.51-5.59,9.32,0,17.22,2.34,23.68,7.03,6.46,4.69,10.68,11.09,12.66,19.19l-18.24,4.94c-1.42-4.41-3.78-7.84-7.07-10.3-3.29-2.46-7.04-3.69-11.25-3.69-4.76,0-8.69,1.13-11.78,3.38-3.09,2.26-5.37,5.36-6.84,9.31-1.47,3.95-2.2,8.44-2.2,13.45,0,7.8,1.75,14.11,5.25,18.93,3.5,4.82,8.69,7.22,15.58,7.22,4.87,0,8.7-1.11,11.52-3.34,2.81-2.23,4.93-5.45,6.35-9.65l18.7,4.18c-2.53,8.36-6.97,14.79-13.3,19.27-6.34,4.48-14.09,6.73-23.26,6.73Z"/>
    <path d="M611.7,119.37v45.84h-18.55v-39.52c0-2.58-.18-5.45-.54-8.59-.36-3.15-1.18-6.17-2.47-9.08-1.29-2.91-3.21-5.3-5.77-7.19-2.56-1.87-6.02-2.8-10.38-2.8-2.33,0-4.64.38-6.92,1.14-2.28.76-4.35,2.06-6.2,3.92-1.85,1.85-3.33,4.38-4.44,7.59-1.11,3.22-1.68,7.35-1.68,12.35v42.19h-18.55V55.75h16.35v36.47c2.08-2.47,4.54-4.6,7.37-6.42,5.28-3.37,11.77-5.06,19.47-5.06,6.09,0,11.09,1.02,15.05,3.05,3.95,2.02,7.1,4.6,9.43,7.75,2.33,3.15,4.05,6.49,5.17,10.03,1.11,3.55,1.84,6.91,2.17,10.08.33,3.17.5,5.74.5,7.71Z"/>
  </g>
  <g>
    <path d="M288.91,227.59c-4.4,0-8.16-.96-11.3-2.89-3.14-1.92-5.54-4.61-7.22-8.05-1.68-3.44-2.52-7.43-2.52-11.97s.84-8.53,2.52-11.97c1.68-3.44,4.09-6.12,7.22-8.05,3.14-1.92,6.9-2.89,11.3-2.89,5.07,0,9.29,1.27,12.67,3.8,3.38,2.53,5.75,5.95,7.12,10.25l-7.42,2.05c-.86-2.87-2.31-5.12-4.37-6.73-2.06-1.62-4.72-2.43-8-2.43-2.95,0-5.41.66-7.38,1.99-1.97,1.32-3.44,3.18-4.43,5.57-.99,2.39-1.49,5.2-1.51,8.41,0,3.22.49,6.02,1.48,8.41.99,2.39,2.47,4.25,4.44,5.57,1.97,1.32,4.44,1.99,7.39,1.99,3.28,0,5.94-.81,8-2.44,2.06-1.63,3.51-3.87,4.37-6.72l7.42,2.05c-1.36,4.3-3.74,7.71-7.12,10.25-3.38,2.53-7.6,3.8-12.67,3.8Z"/>
    <path d="M329.99,227.59c-3.3,0-6.18-.74-8.64-2.23-2.46-1.49-4.37-3.54-5.73-6.15-1.35-2.62-2.03-5.62-2.03-9.02s.69-6.5,2.08-9.1c1.38-2.61,3.31-4.64,5.77-6.11,2.46-1.47,5.31-2.2,8.55-2.2s6.21.74,8.67,2.23c2.46,1.49,4.38,3.54,5.74,6.15,1.36,2.62,2.05,5.62,2.05,9.02s-.69,6.44-2.06,9.06c-1.37,2.62-3.29,4.66-5.76,6.14-2.46,1.48-5.34,2.21-8.64,2.21ZM329.99,220.69c2.93,0,5.11-.98,6.54-2.93,1.42-1.95,2.14-4.48,2.14-7.57s-.72-5.75-2.17-7.65c-1.45-1.9-3.61-2.86-6.51-2.86-1.98,0-3.6.44-4.87,1.33-1.27.89-2.21,2.12-2.82,3.7-.61,1.58-.92,3.41-.92,5.48,0,3.2.73,5.75,2.18,7.65,1.46,1.9,3.6,2.86,6.43,2.86Z"/>
    <path d="M400.15,204.78v21.89h-7.36v-20.03c0-2.26-.56-4.03-1.68-5.29-1.13-1.27-2.64-1.92-4.56-1.92-1.17,0-2.24.28-3.17.82-.94.54-1.68,1.33-2.23,2.38-.55,1.06-.83,2.3-.83,3.74v20.31h-7.33v-19.94c0-2.3-.56-4.09-1.68-5.37-1.13-1.29-2.65-1.93-4.58-1.93s-3.38.64-4.51,1.93c-1.13,1.29-1.69,2.95-1.69,5.01v20.31h-7.42v-32.98h6.5v3.58c.94-1.18,2.11-2.16,3.5-2.92,1.79-.99,3.81-1.48,6.05-1.48,2.47,0,4.53.52,6.19,1.57,1.47.93,2.62,2.15,3.42,3.68,1.02-1.6,2.39-2.87,4.08-3.79,1.79-.98,3.78-1.46,5.98-1.46,3.64,0,6.44,1.09,8.38,3.28,1.94,2.18,2.92,5.06,2.92,8.63Z"/>
    <path d="M455.06,204.78v21.89h-7.36v-20.03c0-2.26-.56-4.03-1.68-5.29-1.13-1.27-2.64-1.92-4.55-1.92-1.18,0-2.24.28-3.18.82-.94.54-1.68,1.33-2.23,2.38-.55,1.06-.83,2.3-.83,3.74v20.31h-7.33v-19.94c0-2.3-.56-4.09-1.68-5.37-1.13-1.29-2.65-1.93-4.58-1.93s-3.38.64-4.5,1.93c-1.14,1.29-1.7,2.95-1.7,5.01v20.31h-7.42v-32.98h6.5v3.58c.94-1.18,2.11-2.16,3.5-2.92,1.8-.99,3.82-1.48,6.06-1.48,2.46,0,4.53.52,6.18,1.57,1.47.93,2.62,2.15,3.42,3.68,1.02-1.6,2.39-2.87,4.08-3.79,1.79-.98,3.79-1.46,5.98-1.46,3.64,0,6.44,1.09,8.38,3.28,1.94,2.18,2.92,5.06,2.92,8.63Z"/>
    <path d="M492.65,193.68v32.98h-6.5v-3.66c-.84,1-1.83,1.86-2.96,2.58-2.11,1.36-4.72,2.03-7.82,2.03-2.43,0-4.46-.41-6.04-1.23-1.6-.8-2.85-1.85-3.79-3.11-.94-1.26-1.63-2.61-2.08-4.03-.45-1.42-.74-2.77-.87-4.04-.13-1.27-.2-2.31-.2-3.1v-18.42h7.45v15.88c0,1.02.07,2.17.22,3.43.14,1.27.47,2.5.99,3.68.52,1.17,1.3,2.12,2.32,2.88,1.03.75,2.42,1.13,4.17,1.13.94,0,1.86-.15,2.78-.46.92-.3,1.75-.83,2.49-1.57.74-.74,1.33-1.76,1.78-3.07.45-1.3.68-2.95.68-4.95v-16.95h7.38Z"/>
    <path d="M531.46,208.26v18.41h-7.45v-15.87c0-1.05-.07-2.19-.21-3.46-.15-1.26-.48-2.48-1-3.65-.52-1.17-1.29-2.12-2.32-2.88-1.02-.75-2.41-1.13-4.17-1.13-.93,0-1.86.15-2.78.46-.92.3-1.75.83-2.49,1.57-.74.74-1.33,1.76-1.78,3.04-.45,1.3-.68,2.95-.68,4.97v16.94h-7.44v-32.98h6.56v3.68c.84-1,1.83-1.86,2.96-2.58,2.12-1.36,4.72-2.03,7.82-2.03,2.45,0,4.46.41,6.04,1.22,1.6.82,2.86,1.86,3.79,3.12.94,1.26,1.63,2.61,2.08,4.03.45,1.42.74,2.77.87,4.04.13,1.27.2,2.31.2,3.1Z"/>
    <path d="M540.02,188.68v-6.75h7.36v6.75h-7.36ZM540.02,226.67v-32.98h7.36v32.98h-7.36Z"/>
    <path d="M566.18,199.46v13.32c0,1.32.02,2.48.05,3.48.03.99.24,1.8.63,2.43.74,1.23,1.91,1.91,3.51,2.06,1.61.14,3.43.06,5.49-.25v6.17c-2.17.41-4.31.59-6.4.54-2.08-.05-3.95-.44-5.6-1.16-1.64-.72-2.89-1.87-3.76-3.43-.75-1.42-1.15-2.88-1.18-4.38-.05-1.48-.07-3.16-.07-5.03v-13.75h-5.98v-5.78h5.98v-9.15h7.33v9.15h9.68v5.78h-9.68Z"/>
    <polygon points="611.7 193.68 593.31 241.33 586.41 241.33 591.83 226.44 578.5 193.68 586.17 193.68 595.38 217.3 604.34 193.68 611.7 193.68"/>
  </g>
</svg>